<!-- <svg xmlns="http://www.w3.org/2000/svg" viewBox="0 0 24 24" width="28" height="28" color="#000000" fill="none">
    <path d="M15.9351 12.6258C15.6807 13.8374 14.327 14.7077 11.6198 16.4481C8.67528 18.3411 7.20303 19.2876 6.01052 18.9229C5.60662 18.7994 5.23463 18.5823 4.92227 18.2876C4 17.4178 4 15.6118 4 12C4 8.38816 4 6.58224 4.92227 5.71235C5.23463 5.41773 5.60662 5.20057 6.01052 5.07707C7.20304 4.71243 8.67528 5.6589 11.6198 7.55186C14.327 9.29233 15.6807 10.1626 15.9351 11.3742C16.0216 11.7865 16.0216 12.2135 15.9351 12.6258Z" stroke="currentColor" stroke-width="1.5" stroke-linejoin="round" />
    <path d="M20 5V19" stroke="currentColor" stroke-width="1.5" stroke-linecap="round" />
</svg> -->

<svg xmlns="http://www.w3.org/2000/svg" viewBox="0 0 320 512"><!--!Font Awesome Free 6.6.0 by @fontawesome - https://fontawesome.com License - https://fontawesome.com/license/free Copyright 2024 Fonticons, Inc.--><path d="M52.5 440.6c-9.5 7.9-22.8 9.7-34.1 4.4S0 428.4 0 416L0 96C0 83.6 7.2 72.3 18.4 67s24.5-3.6 34.1 4.4l192 160L256 241l0-145c0-17.7 14.3-32 32-32s32 14.3 32 32l0 320c0 17.7-14.3 32-32 32s-32-14.3-32-32l0-145-11.5 9.6-192 160z"/></svg>