<!-- <svg xmlns="http://www.w3.org/2000/svg" viewBox="0 0 24 24" width="28" height="28" color="#000000" fill="none">
    <path d="M8.06492 12.6258C8.31931 13.8374 9.67295 14.7077 12.3802 16.4481C15.3247 18.3411 16.797 19.2876 17.9895 18.9229C18.3934 18.7994 18.7654 18.5823 19.0777 18.2876C20 17.4178 20 15.6118 20 12C20 8.38816 20 6.58224 19.0777 5.71235C18.7654 5.41773 18.3934 5.20057 17.9895 5.07707C16.797 4.71243 15.3247 5.6589 12.3802 7.55186C9.67295 9.29233 8.31931 10.1626 8.06492 11.3742C7.97836 11.7865 7.97836 12.2135 8.06492 12.6258Z" stroke="currentColor" stroke-width="1.5" stroke-linejoin="round" />
    <path d="M4 4L4 20" stroke="currentColor" stroke-width="1.5" stroke-linecap="round" />
</svg> -->

<svg xmlns="http://www.w3.org/2000/svg" viewBox="0 0 320 512"><!--!Font Awesome Free 6.6.0 by @fontawesome - https://fontawesome.com License - https://fontawesome.com/license/free Copyright 2024 Fonticons, Inc.--><path d="M267.5 440.6c9.5 7.9 22.8 9.7 34.1 4.4s18.4-16.6 18.4-29l0-320c0-12.4-7.2-23.7-18.4-29s-24.5-3.6-34.1 4.4l-192 160L64 241 64 96c0-17.7-14.3-32-32-32S0 78.3 0 96L0 416c0 17.7 14.3 32 32 32s32-14.3 32-32l0-145 11.5 9.6 192 160z"/></svg>